<?xml version="1.0" encoding="utf-8"?>
<!-- Generator: Adobe Illustrator 24.3.0, SVG Export Plug-In . SVG Version: 6.00 Build 0)  -->
<svg version="1.1" id="Capa_1" xmlns="http://www.w3.org/2000/svg" xmlns:xlink="http://www.w3.org/1999/xlink" x="0px" y="0px"
	 viewBox="0 0 78.99 31.01" style="enable-background:new 0 0 78.99 31.01;" xml:space="preserve">
<style type="text/css">
	.st0{fill:#020203;}
</style>
<g>
	<g>
		<path id="Fill-6" class="st0" d="M62.38,8.74c0,0-0.74-0.31-1.79-0.31c-2.96,0-4.55,3.41-4.58,3.47l-0.28,0.65v-0.43V8.39
			l-6.57,3.58v18.49h6.6V18.64l0.03-0.46c0.06-0.97,0.11-1.99,0.57-2.84c1-1.91,3.27-1.88,4.86-1.65L62.38,8.74"/>
		<path id="Fill-7" class="st0" d="M48.52,2.48c-0.26-0.71-0.8-1.42-1.45-1.88c-1.54-0.91-3.7-0.65-4.89,0.6
			c-0.88,0.82-1.31,2.22-1.08,3.56c0.17,1.25,1.19,2.25,2.05,2.65c1.42,0.57,3.53,0.46,4.81-1.14C48.7,5.35,48.92,3.79,48.52,2.48
			L48.52,2.48"/>
		<path id="Fill-8" class="st0" d="M71.48,27.65c-2.62-0.2-3.84-5.01-3.84-5.01l11.35-3.67c0,0-0.23-4.95-2.96-7.65
			c-2.5-2.47-6.31-3.19-9.81-1.76c-2.08,0.8-4.01,2.96-4.89,5.52c-1.74,4.84-0.72,10.24,2.58,13.46c3.04,2.9,7.77,2.84,11.15,1.82
			l1.71-0.74v-3.08C76.77,26.54,74.72,27.88,71.48,27.65L71.48,27.65z M67.47,19.52c-0.17-2.08,0.09-4.3,0.57-5.32
			c0.51-1.02,1.08-1.45,1.79-1.54c3.02-0.37,3.33,5.15,3.33,5.15L67.47,19.52C67.47,19.55,67.47,19.52,67.47,19.52L67.47,19.52z"/>
		<path id="Fill-9" class="st0" d="M41.67,11.98v18.43h6.68V8.4L41.67,11.98"/>
		<path id="Fill-11" class="st0" d="M9.98,26.91C8.22,26,6.77,24.66,6.57,20.82c-0.23-4.47,0.68-7.62,3.07-8.53
			c1.82-0.68,4.3,0.82,4.3,0.82l0.03-3.61c0,0-3.41-1.65-7.25-0.43c-3.47,1.11-5.69,3.81-6.49,8.22c-0.57,3.21-0.11,6.77,1.48,9.56
			c1.82,3.02,5.32,4.58,9.27,4.07c1.08-0.14,3.33-0.82,3.33-0.82l-0.03-3.36C14.28,26.72,11.8,27.85,9.98,26.91"/>
		<path id="Fill-12" class="st0" d="M40.3,27.6c-0.57-0.06-0.74-1.28-0.74-1.28l-1.22-7.31l-0.28-1.42c-0.31-1.51-0.6-3.1-1.19-4.55
			c-1.91-4.38-7.31-5.12-11.32-3.93c-0.65,0.2-1.25,0.51-1.25,0.51v2.73c1.65-0.71,3.24-0.77,4.55-0.14
			c1.68,0.82,2.16,2.9,2.25,3.75c0,0.03,0.14,0.97,0.14,0.97c-1.96,0.28-4.38,0.77-6.17,2.05c-1.99,1.42-3.04,3.7-2.82,6.06
			c0.09,2.53,2.02,4.52,3.9,5.23c2.5,0.88,5.95,0.74,7.99-1.62l0.26-0.28l0.57,0.57c1.48,1.56,3.13,1.51,5.01,1.45l1-0.03v-2.67
			C40.99,27.71,40.33,27.6,40.3,27.6L40.3,27.6z M31.71,20.17l1.22,5.92C29.81,29.73,24.6,23.36,31.71,20.17L31.71,20.17z"/>
		<path id="Fill-13" class="st0" d="M14.96,30.36h6.57V1.77L14.96,5.3L14.96,30.36"/>
	</g>
</g>
</svg>
