<?xml version="1.0" encoding="utf-8"?>
<!-- Generator: Adobe Illustrator 24.3.0, SVG Export Plug-In . SVG Version: 6.00 Build 0)  -->
<svg version="1.1" id="Capa_1" xmlns="http://www.w3.org/2000/svg" xmlns:xlink="http://www.w3.org/1999/xlink" x="0px" y="0px"
	 viewBox="0 0 80 14.75" style="enable-background:new 0 0 80 14.75;" xml:space="preserve">
<style type="text/css">
	.st0{fill:#020203;}
</style>
<g>
	<g>
		<path id="Fill-1" class="st0" d="M28.9,5.69v8.79h3.13V3.98L28.9,5.69"/>
		<path id="Fill-2" class="st0" d="M32.1,1.26c-0.12-0.34-0.37-0.68-0.68-0.9c-0.72-0.43-1.73-0.31-2.29,0.28
			c-0.41,0.39-0.61,1.06-0.51,1.7c0.08,0.6,0.56,1.07,0.96,1.26c0.67,0.27,1.65,0.22,2.25-0.54C32.18,2.63,32.3,1.87,32.1,1.26
			L32.1,1.26"/>
		<path id="Fill-3" class="st0" d="M13.29,5.69c-0.16-0.65-0.71-1.22-1.33-1.37c-1.44-0.37-2.76,0.2-3.5,1.49L8.38,5.93L8.33,5.79
			C7.96,4.83,7.36,4.3,6.56,4.22C5.23,4,4.2,4.53,3.22,5.89L3.1,6.07V4.07C2.91,4.17,0.07,5.64,0.07,5.64v8.83H3.1V7.86
			c0-0.52,0.51-0.98,1.01-0.95c0.47,0.01,0.95,0.47,0.95,0.95c0,0,0,6.48,0,6.61h3.16c0-0.12,0-6.61,0-6.61
			c0-0.53,0.55-0.98,1.07-0.95c0.47,0.03,0.92,0.47,0.92,0.95v6.61h3.18V6.81C13.38,6.51,13.38,6.05,13.29,5.69"/>
		<path id="Fill-4" class="st0" d="M22.14,13.24c-0.27-0.03-0.35-0.61-0.35-0.61l-0.57-3.49l-0.13-0.68
			c-0.15-0.72-0.28-1.48-0.56-2.17c-0.89-2.09-3.42-2.44-5.3-1.87c-0.31,0.09-0.59,0.24-0.59,0.24v1.3
			c0.77-0.34,1.52-0.37,2.13-0.07c0.79,0.39,1.01,1.38,1.05,1.79c0,0.01,0.07,0.46,0.07,0.46C16.98,8.29,15.84,8.52,15,9.13
			c-0.93,0.68-1.43,1.76-1.32,2.89c0.04,1.21,0.95,2.16,1.83,2.5c1.17,0.42,2.78,0.35,3.74-0.77l0.12-0.14l0.27,0.27
			c0.69,0.75,1.47,0.72,2.34,0.69l0.47-0.01v-1.28C22.46,13.28,22.16,13.24,22.14,13.24L22.14,13.24z M18.12,9.69l0.57,2.82
			C17.23,14.25,14.79,11.21,18.12,9.69L18.12,9.69z"/>
		<path id="Fill-5" class="st0" d="M28.14,3.99c-1.39,0-2.13,1.63-2.14,1.65l-0.13,0.31v-0.2V3.98l-3.08,1.71v8.82h3.09V8.86
			l0.01-0.22c0.03-0.46,0.05-0.95,0.27-1.36c0.47-0.91,1.53-0.9,2.28-0.79l0.55-2.37C28.98,4.14,28.63,3.99,28.14,3.99"/>
		<path id="Fill-6" class="st0" d="M72.22,4.14c0,0-0.35-0.15-0.84-0.15c-1.39,0-2.13,1.63-2.14,1.65L69.1,5.96v-0.2V3.98
			l-3.08,1.71v8.82h3.09V8.86l0.01-0.22c0.03-0.46,0.05-0.95,0.27-1.36c0.47-0.91,1.53-0.9,2.28-0.79L72.22,4.14"/>
		<path id="Fill-7" class="st0" d="M65.73,1.24c-0.12-0.34-0.37-0.68-0.68-0.9c-0.72-0.43-1.73-0.31-2.29,0.28
			c-0.41,0.39-0.61,1.06-0.51,1.7c0.08,0.6,0.56,1.07,0.96,1.26c0.67,0.27,1.65,0.22,2.25-0.54C65.81,2.61,65.92,1.87,65.73,1.24
			L65.73,1.24"/>
		<path id="Fill-8" class="st0" d="M76.48,13.16c-1.23-0.09-1.8-2.39-1.8-2.39L80,9.02c0,0-0.11-2.36-1.39-3.65
			c-1.17-1.18-2.96-1.52-4.6-0.84c-0.97,0.38-1.88,1.41-2.29,2.63c-0.81,2.31-0.33,4.88,1.21,6.42c1.43,1.38,3.64,1.36,5.22,0.87
			l0.8-0.35v-1.47C78.96,12.63,78,13.27,76.48,13.16L76.48,13.16z M74.6,9.28c-0.08-0.99,0.04-2.05,0.27-2.54
			c0.24-0.49,0.51-0.69,0.84-0.73c1.41-0.18,1.56,2.46,1.56,2.46L74.6,9.28C74.6,9.29,74.6,9.28,74.6,9.28L74.6,9.28z"/>
		<path id="Fill-9" class="st0" d="M62.52,5.69v8.79h3.13V3.98L62.52,5.69"/>
		<path id="Fill-10" class="st0" d="M39.68,5.36c-1.17-1.18-2.96-1.52-4.6-0.84c-0.97,0.38-1.88,1.41-2.29,2.63
			c-0.81,2.31-0.33,4.88,1.21,6.42c1.43,1.38,3.64,1.36,5.22,0.87l0.8-0.35v-1.47c0,0-0.97,0.64-2.48,0.52
			c-1.23-0.09-1.8-2.39-1.8-2.39L41.06,9C41.06,9.01,40.95,6.65,39.68,5.36L39.68,5.36z M35.67,9.29
			C35.67,9.29,35.67,9.28,35.67,9.29c-0.08-1,0.04-2.06,0.27-2.55c0.24-0.49,0.51-0.69,0.84-0.73c1.41-0.18,1.56,2.46,1.56,2.46
			L35.67,9.29L35.67,9.29z"/>
		<path id="Fill-11" class="st0" d="M47.68,12.81c-0.83-0.43-1.51-1.07-1.6-2.9c-0.11-2.13,0.32-3.64,1.44-4.07
			c0.85-0.33,2.01,0.39,2.01,0.39l0.01-1.72c0,0-1.6-0.79-3.4-0.2c-1.63,0.53-2.66,1.82-3.04,3.92c-0.27,1.53-0.05,3.23,0.69,4.56
			c0.85,1.44,2.49,2.18,4.34,1.94c0.51-0.07,1.56-0.39,1.56-0.39l-0.01-1.6C49.69,12.71,48.53,13.25,47.68,12.81"/>
		<path id="Fill-12" class="st0" d="M61.88,13.13c-0.27-0.03-0.35-0.61-0.35-0.61l-0.57-3.49l-0.13-0.68
			c-0.15-0.72-0.28-1.48-0.56-2.17c-0.89-2.09-3.42-2.44-5.3-1.87c-0.31,0.09-0.59,0.24-0.59,0.24v1.3
			c0.77-0.34,1.52-0.37,2.13-0.07c0.79,0.39,1.01,1.38,1.05,1.79c0,0.01,0.07,0.46,0.07,0.46c-0.92,0.14-2.05,0.37-2.89,0.98
			c-0.93,0.68-1.43,1.76-1.32,2.89c0.04,1.21,0.95,2.16,1.83,2.5c1.17,0.42,2.78,0.35,3.74-0.77l0.12-0.14l0.27,0.27
			c0.69,0.75,1.47,0.72,2.34,0.69l0.47-0.01v-1.28C62.2,13.19,61.9,13.13,61.88,13.13L61.88,13.13z M57.86,9.59l0.57,2.82
			C56.97,14.15,54.53,11.11,57.86,9.59L57.86,9.59z"/>
		<path id="Fill-13" class="st0" d="M50.01,14.45h3.08V0.82L50.01,2.5V14.45"/>
	</g>
</g>
</svg>
